HIERARCHY
ROOT Hips
{
	OFFSET -3.958830 18.904000 13.208200
	CHANNELS 6 Xposition Yposition Zposition Zrotation Yrotation Xrotation 
	JOINT LHipJoint
	{
		OFFSET 0.000000 0.000000 0.000000
		CHANNELS 3 Zrotation Yrotation Xrotation
		JOINT LeftUpLeg
		{
			OFFSET 1.800000 -1.400000 0.085000
			CHANNELS 3 Zrotation Yrotation Xrotation
			JOINT LeftLeg
			{
				OFFSET 2.215000 -6.000000 0.000000
				CHANNELS 3 Zrotation Yrotation Xrotation
				JOINT LeftFoot
				{
					OFFSET 2.500000 -6.900000 0.000000
					CHANNELS 3 Zrotation Yrotation Xrotation
					JOINT LeftToeBase
					{
						OFFSET 0.200000 -0.500000 1.950000
						CHANNELS 3 Zrotation Yrotation Xrotation
						End Site
						{
							OFFSET 0.000000 0.000000 0.000000
						}
					}
				}
			}
		}
	}
	JOINT RHipJoint
	{
		OFFSET 0.000000 0.000000 0.000000
		CHANNELS 3 Zrotation Yrotation Xrotation
		JOINT RightUpLeg
		{
			OFFSET -1.800000 -1.400000 0.085000
			CHANNELS 3 Zrotation Yrotation Xrotation
			JOINT RightLeg
			{
				OFFSET -2.215000 -6.000000 0.000000
				CHANNELS 3 Zrotation Yrotation Xrotation
				JOINT RightFoot
				{
					OFFSET -2.500000 -6.900000 0.000000
					CHANNELS 3 Zrotation Yrotation Xrotation
					JOINT RightToeBase
					{
						OFFSET -0.200000 -0.500000 1.950000
						CHANNELS 3 Zrotation Yrotation Xrotation
						End Site
						{
							OFFSET 0.000000 0.000000 0.000000
						}
					}
				}
			}
		}
	}
	JOINT LowerBack
	{
		OFFSET 0.000000 0.000000 0.000000
		CHANNELS 3 Zrotation Yrotation Xrotation
		JOINT Spine
		{
			OFFSET -0.087000 1.940000 -0.288900
			CHANNELS 3 Zrotation Yrotation Xrotation
			JOINT Spine1
			{
				OFFSET 0.000000 1.950000 0.060000
				CHANNELS 3 Zrotation Yrotation Xrotation
				JOINT Neck
				{
					OFFSET 0.000000 0.000000 0.000000
					CHANNELS 3 Zrotation Yrotation Xrotation
					JOINT Neck1
					{
						OFFSET 0.000000 1.600000 0.340000
						CHANNELS 3 Zrotation Yrotation Xrotation
						JOINT Head
						{
							OFFSET 0.000000 1.667000 -0.240000
							CHANNELS 3 Zrotation Yrotation Xrotation
							End Site
							{
								OFFSET 0.000000 0.000000 0.000000
							}
						}
					}
				}
				JOINT LeftShoulder
				{
					OFFSET 0.000000 0.000000 0.000000
					CHANNELS 3 Zrotation Yrotation Xrotation
					JOINT LeftArm
					{
						OFFSET 2.700000 1.550000 -0.730000
						CHANNELS 3 Zrotation Yrotation Xrotation
						JOINT LeftForeArm
						{
							OFFSET 5.450000 0.000000 0.000000
							CHANNELS 3 Zrotation Yrotation Xrotation
							JOINT LeftHand
							{
								OFFSET 3.450000 0.000000 0.000000
								CHANNELS 3 Zrotation Yrotation Xrotation
								JOINT LeftHandIndex1
								{
									OFFSET 0.750000 0.000000 0.000000
									CHANNELS 3 Zrotation Yrotation Xrotation
									End Site
									{
										OFFSET 0.000000 0.000000 0.000000
									}
								}
							}
						}
					}
				}
				JOINT RightShoulder
				{
					OFFSET 0.000000 0.000000 0.000000
					CHANNELS 3 Zrotation Yrotation Xrotation
					JOINT RightArm
					{
						OFFSET -2.700000 1.550000 -0.730000
						CHANNELS 3 Zrotation Yrotation Xrotation
						JOINT RightForeArm
						{
							OFFSET -5.450000 0.000000 0.000000
							CHANNELS 3 Zrotation Yrotation Xrotation
							JOINT RightHand
							{
								OFFSET -3.450000 0.000000 0.000000
								CHANNELS 3 Zrotation Yrotation Xrotation
								JOINT RightHandIndex1
								{
									OFFSET -0.750000 0.000000 0.000000
									CHANNELS 3 Zrotation Yrotation Xrotation
									End Site
									{
										OFFSET 0.000000 0.000000 0.000000
									}
								}
							}
						}
					}
				}
			}
		}
	}
}
MOTION
Frames: 7
Frame Time: 0.016667
0.080730 16.718360 -3.244610 -8.863998 -3.529195 -3.150749 -15.122341 11.717194 1.853548 6.696777 -1.099586 -3.037069 -5.398660 4.419232 3.592034 -0.682155 4.133539 3.239056 0.424010 0.224760 0.303850 18.985607 -7.050378 7.138142 -4.484100 20.173637 -76.661484 2.997527 -19.008676 85.162507 -2.603110 -14.017622 -0.116013 0.270340 0.182530 0.146130 -4.652304 -2.935654 -9.220529 20.008583 -8.098320 19.162841 -6.291150 -2.465029 7.593057 2.084265 -5.220826 -10.255135 -13.483259 3.442803 36.831959 -2.475390 2.281690 -16.210830 -37.997876 -22.639369 3.741307 -34.653090 -22.068576 -8.710359 47.309801 -79.433118 -40.473975 -3.421411 1.882220 0.650140 0.051620 0.073040 0.126960 33.024475 22.891795 9.971434 49.192730 1.427582 -9.027200 -4.497403 23.480781 -1.961122 1.900655 -1.246789 -0.309000 0.397570 0.077450 -0.251310 
0.079090 16.721280 -3.240810 -8.792709 -3.756459 -3.119464 -15.123685 11.710609 1.872373 6.551509 -1.065599 -2.847387 -5.327473 4.371935 3.296726 -0.677376 4.127647 3.241135 0.422360 0.222880 0.306920 18.984241 -7.051683 7.141290 -4.304545 20.292631 -76.511419 3.043885 -18.727561 84.628875 -2.571721 -13.896167 -0.089214 0.269000 0.177200 0.143770 -4.651089 -2.919984 -9.233231 19.919999 -7.950117 19.153908 -6.273828 -2.326508 7.722570 2.121388 -5.137764 -10.354742 -13.366259 3.366524 36.995735 -2.571960 2.292980 -16.129350 -38.179003 -22.879492 3.834981 -34.490991 -22.038210 -8.728211 46.000651 -79.395866 -39.469628 -3.425737 1.933805 0.649410 0.049750 0.073450 0.123220 33.130688 23.138751 10.118031 49.188554 1.260754 -9.121675 -4.728043 23.559659 -2.009489 1.899667 -1.251176 -0.308890 0.394290 0.076760 -0.253750 
0.076160 16.724840 -3.232700 -8.766217 -3.974535 -3.103988 -15.117663 11.720531 1.904520 6.393476 -1.029856 -2.595429 -5.145476 4.300128 2.949519 -0.668289 4.106724 3.241273 0.427090 0.229340 0.318150 18.982907 -7.097542 7.104648 -3.449191 20.313995 -75.628937 2.277220 -17.618203 83.650465 -2.490831 -13.561782 -0.018657 0.269080 0.156970 0.143260 -4.659218 -2.886329 -9.232671 19.945403 -7.786719 19.054875 -6.360219 -2.183217 7.999086 2.221339 -4.986969 -10.549546 -13.208561 3.232507 37.415996 -2.689310 2.281990 -16.144340 -38.540972 -23.384573 4.039782 -34.130297 -22.054082 -8.757596 41.940211 -79.083902 -36.249819 -3.431746 2.088903 0.649520 0.039230 0.082600 0.115260 33.280544 23.610943 10.382625 49.360433 1.013918 -9.292568 -5.336690 23.627401 -2.128205 1.903631 -1.261375 -0.300420 0.381160 0.071130 -0.257160 
0.073720 16.732340 -3.225090 -8.772930 -4.302327 -3.134957 -15.106093 11.747031 1.944714 6.220480 -0.980569 -2.307408 -4.886223 4.226165 2.637644 -0.663290 4.091660 3.242740 0.428950 0.228240 0.327630 18.980991 -7.159362 7.061034 -2.621816 20.224981 -74.518457 1.763213 -16.498852 82.029234 -2.388847 -13.130955 0.078394 0.265130 0.142020 0.143090 -4.673742 -2.855197 -9.233197 20.026794 -7.661442 18.994671 -6.438627 -2.026115 8.543223 2.334419 -4.870822 -11.041799 -13.245013 3.235593 38.185075 -2.686110 2.220170 -16.132880 -39.217743 -24.492646 4.499286 -33.413765 -21.819605 -9.246339 39.349193 -78.314701 -33.919417 -3.437250 2.180548 0.657620 0.027340 0.092580 0.108790 33.731580 24.760456 10.973495 49.309628 0.667610 -9.527461 -6.395057 23.530426 -2.305395 1.901974 -1.271662 -0.296540 0.375190 0.069590 -0.260950 
0.067520 16.738960 -3.210830 -8.618611 -4.339646 -3.316809 -15.097553 11.812440 1.994216 5.891177 -0.895456 -1.996781 -4.570267 4.176830 2.536313 -0.659210 4.077030 3.243051 0.424520 0.223660 0.335910 18.967786 -7.241717 6.988986 -2.044136 19.681036 -73.328834 1.437908 -15.584971 80.158635 -2.281170 -12.685058 0.176600 0.259860 0.128570 0.139900 -4.662254 -2.875711 -9.236144 19.723240 -7.577830 18.929009 -6.361041 -2.034434 9.270519 2.398213 -4.678497 -11.681582 -13.245856 3.340406 39.301023 -2.528790 2.198940 -16.221180 -40.162233 -25.901499 5.147784 -32.467889 -21.366554 -10.062757 38.315035 -77.423770 -32.708569 -3.443804 2.213897 0.669320 0.012350 0.107040 0.099000 34.576244 26.155544 11.680169 49.081399 0.304881 -9.742572 -7.793682 23.119231 -2.503826 1.907145 -1.275025 -0.296510 0.377090 0.071500 -0.263230 
0.059430 16.733800 -3.187410 -8.503663 -4.008334 -3.436545 -15.094200 11.887915 2.024837 5.840629 -0.879835 -1.855102 -4.430949 4.194542 2.728391 -0.650323 4.090731 3.244135 0.419570 0.206360 0.334070 18.948895 -7.314247 6.911186 -2.011706 18.858405 -72.569803 1.612336 -15.258913 78.323699 -2.191296 -12.350451 0.260789 0.245960 0.133440 0.144490 -4.631982 -2.927454 -9.224446 19.457894 -7.639274 19.000255 -6.351482 -2.163944 9.200760 2.416889 -4.578179 -11.903677 -13.191010 3.401523 39.674306 -2.200350 2.073610 -15.968350 -40.759322 -26.252279 5.439791 -32.074652 -20.865769 -10.302515 33.939159 -76.928018 -29.360770 -3.449095 2.346596 0.676340 0.009620 0.106430 0.102290 35.151395 26.462387 11.919197 49.030566 -0.145326 -9.924865 -8.077935 23.007431 -2.537176 1.908179 -1.279128 -0.296880 0.373680 0.072200 -0.262370 
0.051560 16.721470 -3.162200 -8.484436 -3.800599 -3.399388 -15.091553 11.964296 2.038707 6.102770 -0.918641 -1.937732 -4.527147 4.291544 3.180873 -0.649486 4.121475 3.238484 0.394580 0.174670 0.317570 18.927786 -7.388298 6.832006 -2.129983 18.101419 -71.682520 2.265259 -15.082146 75.813863 -2.070681 -11.936358 0.371006 0.229690 0.144960 0.134400 -4.600029 -2.962997 -9.188689 19.414736 -7.685800 19.159284 -6.353709 -2.227354 8.582335 2.434253 -4.579710 -11.751028 -13.116757 3.429650 39.438861 -2.128250 2.052920 -15.657320 -40.882550 -25.692011 5.379586 -32.420324 -20.672527 -9.974353 27.748689 -76.409651 -24.773473 -3.454985 2.490685 0.675480 0.013740 0.091200 0.097350 35.242115 25.910230 11.727319 49.081812 -0.444302 -9.946275 -7.437833 22.954835 -2.410599 1.912891 -1.262536 -0.310050 0.377970 0.084640 -0.264560 
